<?xml version="1.0" standalone="no"?>
<!DOCTYPE svg PUBLIC "-//W3C//DTD SVG 20010904//EN"
 "http://www.w3.org/TR/2001/REC-SVG-20010904/DTD/svg10.dtd">
<svg version="1.0" xmlns="http://www.w3.org/2000/svg"
 width="150.000000pt" height="150.000000pt" viewBox="0 0 150.000000 150.000000"
 preserveAspectRatio="xMidYMid meet">
<metadata>
Created by potrace 1.11, written by Peter Selinger 2001-2013
</metadata>
<g transform="translate(0.000000,150.000000) scale(0.100000,-0.100000)"
fill="#000000" stroke="none">
<path d="M603 1438 c-235 -47 -424 -209 -512 -437 -33 -86 -56 -236 -46 -302
4 -24 8 -60 10 -79 2 -19 6 -44 10 -55 39 -106 62 -156 86 -193 16 -24 29 -45
29 -47 0 -13 105 -114 157 -151 185 -133 420 -169 637 -98 168 55 302 165 395
326 22 38 38 68 36 68 -2 0 5 22 16 50 10 27 22 74 26 102 12 78 8 236 -7 288
-6 25 -13 52 -15 60 -6 33 -65 143 -110 206 -151 212 -438 318 -712 262z"/>
</g>
</svg>
